<svg xmlns="http://www.w3.org/2000/svg" viewBox="0 0 100 100" role="img" aria-label="Apple Music">
  <defs>
    <linearGradient id="amg" x1="0" y1="0" x2="0" y2="1">
      <stop offset="0" stop-color="#fb2862"/>
      <stop offset="1" stop-color="#fa2d48"/>
    </linearGradient>
  </defs>
  <rect width="100" height="100" rx="22" fill="url(#amg)"/>
  <path fill="#fff" d="M68 24c0-1.5-1-2.4-2.5-2.1L40 27c-1.7.4-2.5 1.6-2.5 3v33c0 .9-.6 1.6-1.5 1.8l-3 .6c-5.5 1-9 4-9 8.6s4 7.7 9.5 6.6 9-4.7 9-10V44.5c0-1.4.7-2.5 2-2.8L62 38.5c1.5-.3 2-.1 2 1.4v17c0 .9-.6 1.6-1.5 1.8l-3 .6c-5.5 1-9 4-9 8.6s4 7.7 9.5 6.6 9-4.7 9-10V24z"/>
</svg>
